<?xml version="1.0" standalone="no"?>
<svg version="1.0" xmlns="http://www.w3.org/2000/svg" width="1365.333" height="341.333" viewBox="0 0 1024 256">
<path d="M465.4 27.1c-4.2 1.2-8.2 5.4-9.6 10.1-1 3.3-.9 4.6.8 8.6 3.3 7.9 11.9 11.3 19.3 7.4 4.7-2.3 7.2-6.1 7.8-11.3 1-9.9-8.6-17.7-18.3-14.8zm9.5 3.3c9.8 5.1 7.4 19.8-3.5 21.3-12.9 1.7-18.7-15.4-7.2-21 4.1-2.1 7.1-2.1 10.7-.3z"/>
<path d="M464 41.6v6.5l4.6-.3c5.5-.4 7.7-2.6 5.7-5.8-.8-1.2-.9-2.1-.3-2.5.7-.4.6-1.3 0-2.6-.8-1.4-2.1-1.9-5.5-1.9H464v6.6zm7.5-3.1c0 .5-1 1.1-2.2 1.3-1.6.2-2.3-.2-2.3-1.3s.7-1.5 2.3-1.3c1.2.2 2.2.7 2.2 1.3zm1 5.5c0 .9-1.1 1.6-2.7 1.8-2.3.3-2.8-.1-2.8-1.8s.5-2.1 2.8-1.8c1.6.2 2.7.9 2.7 1.8z"/>
<path d="M754.9 26.9c-4.5 1.4-7.6 4-9.4 8.1-3.1 6.9-.4 14.8 6.3 18 3.2 1.5 4.2 3 2 3-2.4 0-7.7 5.1-8.8 8.5l-1.2 3.5H730V53.5c0-9-.4-14.5-1-14.5s-1 5.5-1 14.5V68h-56V54c0-7.7-.3-14-.7-14-.5 0-.7 6.3-.5 14l.3 14h-13.7l-1.2-3.5c-1.4-3.7-6.4-8.5-9-8.5-.9 0-.1-.8 1.8-1.9 8.9-4.7 10.9-15.1 4.2-22.3-7-7.5-19.7-5-23.8 4.7-2.5 6 1.1 14.4 7.4 17.6 3.2 1.7 3.2 1.7.8 2.3-3 .7-8.6 7-8.6 9.6 0 1.8-.7 2-7 2h-7V53.5c0-9-.4-14.5-1-14.5s-1 5.5-1 14.5V68h-56.1l.3-14c.2-8.9-.1-14-.7-14s-.9 5.1-.7 14l.3 14h-7.4c-7 0-7.5-.2-8.1-2.3-.3-1.2-1.9-3.6-3.6-5.2-2.8-2.7-3.8-3-9.5-3-5.4 0-6.7.4-9 2.5-1.5 1.4-3.3 3.7-4.1 5.2-1.4 2.6-1.9 2.8-7.9 2.8H500V54.6c0-7.9-.4-13.7-1-14.1-.6-.4-1 4.3-1 13.4V68h-56.1l.3-14c.2-7.7 0-14-.4-14-.5 0-.8 6.3-.8 14v14h-14.6l-1.7-3.5c-4.8-10.1-21-9.9-25.7.2-1.5 3.2-1.7 3.3-7.7 3.3H385V53.3c0-8-.3-14.4-.6-14-.3.3-.5 6.9-.5 14.6l.2 14.1h-15.7l-1.3-3.5c-1.6-4.5-6.2-7.7-12-8.2-6.1-.6-10.9 2.1-13.6 7.5-2 4.1-2 4.1-7.7 4.2H328V54c0-8.7-.4-14-1-14s-1 5.3-1 14v14h-56.1l.2-14.3c0-7.8-.2-14.2-.6-14.2-.4 0-.6 6.4-.6 14.2l.2 14.3H253l-1.4-3.4c-4.5-10.8-20.9-10.9-26-.1-1.6 3.4-1.9 3.5-7.1 3.5H213V54c0-8.7-.4-14-1-14s-1 5.3-1 14v14h-56.1l.2-14.1c0-7.7-.2-14.3-.5-14.6-.3-.4-.6 6-.6 14V68h-16.5l-1.7-4c-1.7-4.1-6.7-8-10.2-8-1.2 0 .1-1 3-2.5 7.9-4 10.7-10.7 7.4-18.2-4.9-11.2-21.1-11.2-26 0-3.3 7.5-.5 14.2 7.4 18.2 2.9 1.5 4.2 2.5 3 2.5-3.5 0-8.5 3.9-10.2 8-1.7 3.9-1.8 4-6.9 4-3.3 0-5.3-.4-5.3-1.1 0-.8-.5-.8-1.5.1-1.2 1-1.8 1-3 0-1.3-1.1-1.5 5.6-1.5 59 0 54.6.1 60.2 1.6 59.6.9-.3 2.1-.3 2.7.1.6.3 3.4.5 6.2.4l5.2-.2 2.4 4.8c5.8 11.5 20 11.6 25.8 0l2.3-4.7h85.4l1.2 3.4c1.7 4.6 5.7 8.4 10.3 9.7 7.1 2.2 15.5-2.9 17.4-10.4l.7-2.7h85.6l2.3 4.7c5.8 11.5 20 11.5 25.8 0l2.3-4.7h85.4l1.9 4.3c2.6 5.5 7.4 8.7 13.2 8.7 6.1 0 9.9-2.5 12.6-8.2l2.2-4.7 14.3-.1c9.7 0 14.2.3 14.2 1.1 0 2.7 3.5 8 6.4 9.8 8.1 5 18.7 1.4 21.6-7.5l1.2-3.4 43 .2 43 .3 1.4 4c2.4 7.1 8.9 10.6 16.9 9.1 4.2-.8 9.2-5.6 10.3-9.9l.8-3.2 43-.2 42.9-.2 2.2 4.7c2.7 5.7 6.7 8.4 12.8 8.4 6 0 10.1-2.7 12.8-8.4l2.2-4.7 5.7-.1c3.1 0 6-.5 6.3-1 .5-.7 1.1-.8 1.9-.1.6.5 4.1 1.1 7.6 1.3 6.3.3 6.5.4 7.3 3.5.5 1.7 2.4 4.6 4.3 6.4 7.9 7.6 21.1 3.6 23.8-7.4l.6-2.7h43.1c40 0 43 .1 43.5 1.8 2.6 8.3 7 12.2 13.9 12.2 7.1 0 11.8-3.6 14.5-11.3.9-2.5 1.3-2.7 7-2.7h6v-73.7c0-40.5-.3-73.4-.6-73-.3.3-.5 6.9-.5 14.6l.2 14.1h-6c-5.8 0-5.9-.1-7.8-3.7-5.1-9.8-20.3-9.6-25.2.4-1.6 3.2-1.6 3.3-9.3 3.3H902V53.5c0-9-.4-14.5-1-14.5s-1 5.5-1 14.5V68h-56.1l.2-14.1c0-7.7-.2-14.3-.5-14.6-.3-.4-.6 6-.6 14V68h-6.5c-5.8 0-6.5-.2-6.5-2 0-2.4-5.4-8.7-8.2-9.6-1.9-.6-1.8-.7.9-2.4 7.2-4.3 9.6-11.3 6.4-18.4-6.3-14.3-28.1-9-26.8 6.6.5 5.8 2.7 9.4 7.2 11.5l3.5 1.7-3.8 2c-2.3 1.3-4.4 3.6-5.7 6.3l-2 4.1-7.5.4c-4.1.1-10.5.2-14.2 0-6.4-.3-6.7-.4-7.7-3.3-1.2-3.4-6.6-8.9-8.7-8.9-2.4 0-1.5-1.4 1.8-3 4.2-2 6.8-5.8 7.5-10.7 1.2-9.4-8.8-18.1-17.8-15.4zm-625.1 4.7c6.5 4.3 5.9 15.4-1 19-5.6 2.9-13.1 1-15.8-4.1-5.8-10.8 6.4-21.7 16.8-14.9zm633.7-1.2c6.9 2.9 8.5 13 3.1 18.5-2.2 2.2-3.6 2.6-8.1 2.6s-5.9-.4-8.1-2.6c-5.3-5.4-3.8-15.5 2.9-18.4 4.1-1.8 6-1.8 10.2-.1zM650.3 33c1.9 1.7 3.7 4.4 4.1 6.1.8 4.2-1.6 9.5-5.6 11.9-5.8 3.5-11.5 2.1-15.5-3.9-2.7-4-2.9-6.1-.7-10.7 3.3-6.9 11.9-8.5 17.7-3.4zM822 31.5c6.5 3.4 7.6 12.1 2.4 17.6-7.3 7.6-19.4 2.7-19.4-7.8 0-3.8.5-5 3.4-7.9 3.9-3.9 8.6-4.5 13.6-1.9zM649.1 60.3c6.2 4.2 6.8 12.2 1.4 17.7-3.8 3.7-11.2 3.6-15.3-.3-5.6-5.3-4.6-13.7 2-17.7 4.3-2.6 7.7-2.5 11.9.3zm114.9-.8c8.7 4.5 7.4 17.8-1.9 20.6-4.8 1.4-8.5.6-11.6-2.6-9.3-9.2 1.8-24 13.5-18zM244.8 61c9.5 5.8 4.9 21-6.3 21-3.8 0-8.3-2.6-10-6-5.5-10.7 6-21.3 16.3-15zm116.5.1c3.9 3 5.3 8.5 3.4 13.1s-5.7 7.1-10.8 7.1c-5 0-9-2.8-10.6-7.4-1.5-4.7-.6-8.4 2.9-11.9 2.4-2.5 3.8-3 7.7-3 3.4 0 5.6.6 7.4 2.1zm57.7.7c5.6 4.2 5.6 12.4 0 17.4-8.7 7.9-22.7-2.2-17.7-12.7 3.4-7.1 11.5-9.2 17.7-4.7zm115 .1c3.7 2.6 5.1 6 4.6 10.6-.7 5.8-5.1 9.5-11.2 9.5-3.9 0-5.1-.5-8-3.4-9.9-9.9 3.3-24.9 14.6-16.7zM935.5 60c.7 0 2.7 1.4 4.4 3.1 2.6 2.6 3.1 3.8 3.1 7.9 0 4.1-.5 5.3-3.1 7.9-2.5 2.6-3.8 3.1-7.8 3.1-5.3 0-8.4-1.8-10.6-6-2.1-4-1.9-7.2.8-11.1 2.2-3.4 7.9-6.2 10.5-5.3.8.2 2 .4 2.7.4zM127 66.5c1.6 1.9.5 3.4-1.2 1.7-1.9-1.9-4.8-1.4-5.9 1.2-2.1 4.5 2.6 8.7 5.9 5.4 1.7-1.7 2.8-.2 1.2 1.7-1.6 2-5.9 1.9-8.2-.2-2.2-2-2.3-7-.1-9.5 2-2.2 6.6-2.4 8.3-.3zm694 0c1.6 1.9.5 3.4-1.2 1.7-1.9-1.9-4.8-1.4-5.9 1.2-2.1 4.5 2.6 8.7 5.9 5.4 1.7-1.7 2.8-.2 1.2 1.7-1.6 2-5.9 1.9-8.2-.2-2.2-2-2.3-7-.1-9.5 2-2.2 6.6-2.4 8.3-.3zm-711.9 6.3c1.2 5.9 7.8 11.2 13.9 11.2 6.1 0 12.7-5.3 13.9-11.2l.7-3.3 8.2-.3 8.2-.3V97H98V68.9l5.2.3c5 .3 5.3.4 5.9 3.6zM211 83v14h-7.7l-7.8-.1-2-4.1c-2.8-5.9-6.5-8.3-12.8-8.3-6.5 0-10.8 2.8-13.1 8.5l-1.6 4.1-5.3-.3-5.2-.3-.3-12.4c-.1-6.9 0-13.1.2-13.8.4-1 6.3-1.3 28.1-1.3H211v14zm13-11.9c0 6.9 9.5 14.8 16.3 13.5 6.9-1.3 12.7-7.4 12.7-13.5 0-2.1.4-2.2 7.8-1.9l7.7.3.3 13.7.3 13.8H213V69h5.5c4.9 0 5.5.2 5.5 2.1zm102 3.5c0 3.4.4 5.3 1 4.9.6-.3 1-2.8 1-5.6V69h5.5c3.6 0 5.7.4 5.9 1.2.3.7.7 2.6 1.1 4.2.6 2.8 4.7 7.7 7.5 8.9 1.3.6 1.3.8 0 1.4-3 1.3-7 6.2-7.6 9.2-.6 3-.8 3.1-6.5 3.1H328v-3.9c0-2.2-.4-4.3-1-4.6-.6-.4-1 1.2-1 3.9V97h-14.8l-1.1-3.3c-1.9-5.7-6.2-9-12.5-9.5-4.4-.3-6.2 0-8.9 1.7-3.2 1.9-6.7 7.2-6.7 10 0 .7-2.3 1.1-6 1.1h-6V83.7c0-7.4.3-13.7.7-14 .3-.4 12.9-.7 28-.7H326v5.6zm58.1-.1l.6 5 .1-5.3.2-5.2h5.9c5.9 0 5.9 0 6.6 3.2 1.6 7.7 7.4 12.8 14.5 12.8 6.5 0 12.8-5.4 13.7-11.9l.6-4.1H441v28h-56l-.2-4.8-.1-4.7-.6 4.5-.6 4.5h-14.9l-.8-3.2c-.7-2.8-4.7-7.2-8-8.7-1-.5-1-.8.2-1.3 3.5-1.5 8-7.2 8-10 0-1.6.3-3.3.7-3.7.4-.4 3.9-.5 7.8-.4l7 .3.6 5zM498 83v14h-6.7c-6.8 0-6.8 0-8.8-3.7-3.1-5.6-6.7-7.8-13-7.8s-9.9 2.2-12.8 7.9l-1.9 3.7-6.2-.3-6.1-.3-.3-12.4c-.1-6.9 0-13.1.2-13.8.4-1 6.3-1.3 28.1-1.3H498v14zm15-11.3c0 1.6.9 4.3 2 6.1 7.1 11.6 24.5 8.4 26.6-5l.7-3.8H556v28h-56V69h6.5c6.4 0 6.5 0 6.5 2.7zM613 83v14h-6.5c-6.4 0-6.5 0-7.9-3.3-2.9-7.1-11.1-11-18-8.7-3.9 1.3-8.3 5.8-9.2 9.6-.6 2.2-1 2.4-7.5 2.4H557V83.7c0-7.4.3-13.7.7-14 .3-.4 12.9-.7 28-.7H613v14zm16.1-10.2c.9 4.4 5.4 9 10.1 10.4 7.4 2.2 15.6-2.6 17.5-10.2l.9-3.5h12.9v27l-6.7.3c-5.5.2-6.8 0-6.8-1.2 0-2.1-4.7-7.4-8.3-9.2-3.7-2-10.2-1.4-14 1-1.4 1-3.4 3.5-4.4 5.7l-1.8 3.8-6.7.1H615V68.9l6.7.3 6.7.3.7 3.3zM728 83v14h-56V69h56v14zm16-12.4c0 5.4 6.2 11.7 12.8 13 4.7 1 11.8-2.9 14.2-7.7 1.1-2.1 2-4.5 2-5.4 0-1.3 1.1-1.5 6.3-1.3l6.2.3v27l-6.1.3-6.2.3-1.8-3.7c-2.8-5.6-6.5-7.9-12.9-7.9-6.3 0-10.1 2.3-12.8 7.8l-1.9 3.7H730V69h7c5.7 0 7 .3 7 1.6zm58 .6c0 3 3.3 8.3 6.3 10.3 7 4.6 16.9 1.8 20.6-5.9 1.2-2.3 2.1-4.8 2.1-5.4 0-.8 2-1.2 6-1.2h6v28h-56V69h7.5c7.1 0 7.5.1 7.5 2.2zM900 83v14h-5.7c-5.8 0-5.8 0-7.5-4-4.5-10.8-21.1-10.7-25.6.1l-1.7 3.9-7.5-.2-7.5-.3-.3-12.4c-.1-6.9 0-13.1.2-13.8.4-1 6.3-1.3 28.1-1.3H900v14zm17.5-10.8c1.8 8.2 6.8 12.8 14 12.8 7.8 0 14.5-6.2 14.5-13.3 0-2.8 0-2.8 5.8-2.5l5.7.3.3 13.7.3 13.8H902V69h14.8l.7 3.2zM300.3 87.1c6.4 3.3 9 9.2 6.7 15-1.9 4.5-5.6 6.9-10.7 6.9-3.8 0-5-.5-7.9-3.4-2.8-2.8-3.4-4.2-3.4-7.5 0-5 2.3-8.9 6.5-10.7 3.7-1.6 6-1.7 8.8-.3zm-111.7 3.3c2.9 2.9 3.4 4.1 3.4 7.9 0 5.4-2.6 9.1-7.6 10.7-4.3 1.5-7.3.8-11.2-2.5-8.2-6.8-2.8-19.5 8.2-19.5 3 0 4.5.7 7.2 3.4zm402.5-1.7c6.3 3.7 7.4 12.5 2.2 17.7-7.3 7.4-19.3 2.5-19.3-7.8 0-9.2 9.3-14.5 17.1-9.9zm289.6.9c6.6 4.1 6 15.4-.9 19-5.3 2.8-12.4 1.2-15.3-3.3-2.3-3.4-2.2-9.9.2-13.2 3.6-4.7 10.6-5.8 16-2.5zm-403.1 1.8c2.6 2.6 3.4 4.2 3.4 7 0 5.2-2.3 9-6.6 11.1-5 2.3-9.5 1.3-13.3-3.1-3.5-3.9-4-7.8-1.6-12.4 2.1-4.2 5.3-6 10.3-6 3.7 0 5 .6 7.8 3.4zm171.2-2c3.5 1.8 5.6 5.7 5.5 10.3-.1 4.7-3.1 8.5-8 10.2-3.6 1.3-4.3 1.2-7.9-.5-5.5-2.7-8.1-8.1-6.5-13.5 2-6.8 10.3-9.9 16.9-6.5zm117.9 1.9c3.5 3.4 4.1 10.1 1.4 14.3-4.1 6.7-15 6.7-19.2.1-3.6-5.7-1.3-14.3 4.6-16.8 3.6-1.6 10.5-.3 13.2 2.4zM359 94.5c1.6 1.9.5 3.4-1.2 1.7-1.9-1.9-4.8-1.4-5.9 1.2-2.1 4.5 2.6 8.7 5.9 5.4 1.7-1.7 2.8-.2 1.2 1.7-1.6 2-5.9 1.9-8.2-.2-2.2-2-2.3-7-.1-9.5 2-2.2 6.6-2.4 8.3-.3zM623.6 99c4.9 0 5.4.2 5.4 2.2 0 3.6 3.6 8.5 7.7 10.7 2.2 1.2 3.1 2 2.1 2.1-2.4 0-8.7 5.8-9.4 8.5-.5 2.2-1.2 2.4-8 2.7-4.1.2-10.7.1-14.6 0l-7.3-.4-2-4.1c-1.3-2.7-3.3-4.7-5.8-6l-3.9-2 2.9-1.2c3.7-1.6 7.2-5.5 8.2-9.1.7-2.7 1.1-2.9 7.2-3.5 3.5-.3 7.7-.5 9.3-.3 1.6.2 5.3.4 8.2.4zM154 112v13H98V99h56v13zm13.2-9.4c.8 3.2 6.8 9.4 9.1 9.4.7.1-.5 1-2.6 2.1-2.7 1.4-4.4 3.3-5.8 6.5l-2 4.4H155V98.9l5.7.3c5.4.3 5.7.4 6.5 3.4zM211 112v13h-15.6l-1.2-3.5c-1.4-3.7-6.4-8.5-9-8.5-.9-.1 0-1 2.1-2.1 3.9-2 7.7-7.1 7.7-10.2 0-1.5 1-1.7 8-1.7h8v13zm58 0v13h-15.8l-1.9-3.7c-1-2.1-3.3-4.8-5.2-6-7-4.7-16.6-1.9-20.4 6-1.8 3.6-2 3.7-7.3 3.7H213V99h56v13zm14.5-8.7c2.9 6 7.7 9 13.8 8.4 6.7-.6 11-4.2 13.1-11 .4-1.4 1.8-1.7 8.1-1.7h7.5v26h-56V99h5.8l5.7.1 2 4.2zm56.5-2.7c0 2.7 4 8.3 7 9.9 3.8 1.9 10.3 1.9 14.1 0 3.2-1.7 6.9-6.9 6.9-9.8 0-1.5 1-1.7 8-1.7h8v26h-15.6l-1.7-3.5c-2.5-5.2-7.1-7.7-13.3-7.2-5.8.4-9.5 2.7-12.1 7.4-1.7 3.1-2 3.3-7.5 3.3H328V99h6c4.9 0 6 .3 6 1.6zM441 112v13h-56V99h56v13zm14.9-9.1c1.1 3.8 6.9 10.1 9.4 10.1.6 0-.4.8-2.3 1.8-2 1.1-4.5 3.7-5.8 6l-2.3 4.2H442V99h12.7l1.2 3.9zM498 112v13h-7c-7 0-7 0-8.4-3.3-1.5-3.7-5.9-7.7-8.5-7.7-.9 0-.1-.9 1.8-2.1 4.5-2.8 6.9-5.7 7.7-9.7l.6-3.2H498v13zm58 0v13h-56V99h56v13zm15.3-10.2c.8 3.7 4.4 8.2 7.9 9.6l2.8 1.2-3.7 2.5c-2.1 1.3-4.7 4.1-5.8 6.2l-2 3.7H557V99h6.9c6.7 0 6.9.1 7.4 2.8zM671 112v13h-6.9c-6.7 0-6.9-.1-8.1-3-1.4-3.5-6.4-8-8.8-8-.9-.1 0-1 2.1-2.1 4.1-2.2 7.7-7.1 7.7-10.7 0-2.1.4-2.2 7-2.2h7v13zm57 0v13h-56V99h56v13zm16.4-9.6c.8 4.4 5.5 9.4 9.6 10.2l3.1.7-3.9 1.7c-4 1.8-8.2 6.2-8.2 8.6 0 1.1-1.8 1.4-7.5 1.4H730V99h13.8l.6 3.4zm41.4 9.3l-.3 12.8-6.7.3c-5.5.2-6.8 0-6.8-1.2 0-2.2-4.6-7.2-8-8.6l-3.1-1.3 3.8-1.7c4.3-1.9 7-5.4 8-10 .5-3 .6-3 7-3h6.4l-.3 12.7zm57.2.3v13h-56V99h56v13zm17-10.9c0 3.3 3.6 8.5 7.1 10.1l3 1.5-3.6 2.2c-2.3 1.3-4.3 3.6-5.3 6.1l-1.7 4H844V99h8c7.5 0 8 .1 8 2.1zm40 10.9v13h-11.5l-1.7-4c-1-2.5-3-4.8-5.3-6.1l-3.6-2.2 3-1.5c3.5-1.6 7.1-6.8 7.1-10.1 0-1.9.5-2.1 6-2.1h6v13zm58 0v13h-5.9c-5.6 0-5.9-.1-7.1-3-2.7-6.6-10.8-10.2-17.5-8-3.6 1.2-9.5 7.1-9.5 9.5 0 1.2-1.6 1.5-8 1.5h-8V99h56v13zm-769.4 6.4c2.8 2.8 3.4 4.1 3.4 7.8 0 7.4-5.8 12.6-12.8 11.4-10.4-1.6-13.5-15.4-4.8-20.7 5-3.1 10.2-2.5 14.2 1.5zm692.2-.8c3.7 2.5 5.6 8 4.3 12.6-3.2 10.7-19.2 10.5-22.1-.3-2.8-10.4 8.7-18.3 17.8-12.3zm-634.2 1.8c4.2 4.2 4.7 9.7 1.2 14.1-5 6.4-13.1 6.5-18.3.4-3.8-4.6-3.5-10.1.9-14.5 2.9-2.9 4.1-3.4 8.1-3.4s5.2.5 8.1 3.4zm229.2-1.4c10.4 6.3 3.8 22.8-8.2 20.6-10-1.9-12.7-15.5-4.2-20.7 4-2.4 8.3-2.4 12.4.1zm115.3-.4c6.5 3.3 7.5 13.1 1.8 17.8-4 3.4-7 4.1-11.3 2.6-5-1.6-7.6-5.3-7.6-10.7 0-3.8.5-5 3.4-7.9 3.9-3.9 8.6-4.5 13.7-1.8zm345.9-.1c4.1 2.1 6 5.3 6 10.2 0 5.8-3.9 10.2-9.7 11-11 1.5-17.5-11.5-9.5-18.9 4.4-4.1 8.4-4.8 13.2-2.3zm-575.7 1.6c1.5 1.1 3.2 3.7 3.8 5.9 2.5 8.2-5.5 16.3-13.9 14.1-9-2.5-11.6-12.5-5-19.1 2.4-2.5 3.8-3 7.7-3 3.4 0 5.6.6 7.4 2.1zm405.3 1.3c4.8 4.8 4.8 10.1.1 15.2-2.7 3-4.1 3.7-7.4 3.8-7.4.1-12.3-4.6-12.3-11.9 0-2.9.8-4.5 3.4-7.1 2.9-2.9 4.1-3.4 8.1-3.4s5.2.5 8.1 3.4zM647 124.5c1.6 1.9.5 3.4-1.2 1.7-1.9-1.9-4.8-1.4-5.9 1.2-2.1 4.5 2.6 8.7 5.9 5.4 1.7-1.7 2.8-.2 1.2 1.7-1.6 2-5.9 1.9-8.2-.2-2.2-2-2.3-7-.1-9.5 2-2.2 6.6-2.4 8.3-.3zm263.2 3.5c5.7 0 7 .3 7.4 1.7 1.5 5.1 4 8.4 7.5 10.1l3.9 2-3 1.2c-3.3 1.4-8 6.4-8 8.5 0 1.5-10.7 2.3-23.1 1.7-6.4-.3-6.8-.4-7.9-3.3-1.5-3.5-6.8-7.9-9.6-7.9-1.2-.1-.2-.9 2.5-2.2 4.3-2.1 8.1-6.8 8.1-10.1 0-1.4 1-1.7 5.9-1.7 3.3 0 6.3-.5 6.7-1.1.4-.8.9-.8 1.7 0 .6.6 4.2 1.1 7.9 1.1zm-691.3 0c4.5 0 4.7.1 6.6 4.2 1.2 2.6 3.5 5.3 5.8 6.7l3.7 2.5-2.7 1.1c-3.4 1.5-5.8 4.1-7.2 7.8-1 2.5-1.5 2.7-6.8 2.8-11.2.3-22.8-.3-23.1-1.2-1.3-3.4-5.4-7.8-9.2-9.7-2.7-1.3-3.7-2.2-2.5-2.2 3.6 0 8.6-3.9 10.3-8l1.7-3.9 8-.3c4.4-.2 8.6-.2 9.3-.1.8.2 3.5.3 6.1.3zM154 140.5V153H98v-25h56v12.5zm13-10.4c0 2.9 7.1 9.9 10.1 9.9 1.9.1 1.5.5-2.1 2.3-3.3 1.6-5 3.3-6.5 6.4l-2 4.2-5.7.1H155v-25h6c5.4 0 6 .2 6 2.1zm102 10.4V153h-8c-7.9 0-8.1-.1-9.1-2.7-1.4-3.8-3.8-6.3-7.4-7.9l-3-1.2 2.6-1c3.1-1.2 7.7-6.4 8.5-9.8.6-2.3 1-2.4 8.5-2.4h7.9v12.5zm57 0V153h-56v-25h56v12.5zm14-10.3c0 3.4 3.5 8.5 6.9 10.3 3.8 1.9 10.4 1.9 14.2 0 3.4-1.8 6.9-6.9 6.9-10.3 0-2.1.4-2.2 8-2.2h8v25h-7.9c-7.9 0-7.9 0-9.9-3.3-5.1-8.7-18.9-8.7-24.3-.1-2 3.2-2.3 3.4-8 3.4H328v-25h6c5.6 0 6 .2 6 2.2zm101 10.3V153h-56v-25h56v12.5zm15.8-7.6c1.7 3.7 3.2 5.4 6.2 6.9l4.1 2-3.8 1.9c-2.2 1.1-4.7 3.5-5.8 5.6-2 3.7-2 3.7-8.7 3.7H442v-25h12.5l2.3 4.9zm41.2 7.6V153h-7.5c-5.7 0-7.5-.3-7.5-1.4 0-2.3-4.2-6.8-7.8-8.3l-3.5-1.5 4.1-1.8c4.3-1.9 6.6-4.7 7.7-9.3.7-2.6.9-2.7 7.6-2.7h6.9v12.5zm58 0V153h-7.2c-7 0-7.4-.1-9-3-5.2-9.1-19.4-9.1-24.6 0-1.6 2.8-2 3-8.4 3H500v-25h56v12.5zm15-10.8c0 2.8 3.7 8.1 6.7 9.6 2.9 1.5 5.7 2 10.7 1.8 3.8-.1 10.6-6.9 10.6-10.5 0-2.6.1-2.6 7-2.6h7v25h-56v-25h7c6 0 7 .3 7 1.7zm58 .8c0 3.6 5.5 9.3 10.1 10.5 7.7 2.1 16.1-2.7 17.6-10.1.5-2.9.7-2.9 7.4-2.9h6.9v25h-6.8c-6.5 0-6.9-.2-9.1-3.1-6.6-8.9-18.7-9.1-24.2-.3-2 3.3-2.2 3.4-9 3.4H615v-25h7c6.8 0 7 .1 7 2.5zm99 10V153h-56v-25h56v12.5zm16.5-9.5c3.2 14.4 24.8 14.4 28 0 .6-2.9.8-3 7.1-3h6.4v25h-6.7c-6.5-.1-6.9-.2-8.8-3.3-5.5-8.8-19.3-8.6-24.3.4-1.6 2.8-2 2.9-8.9 2.9H730v-25h6.9c6.9 0 6.9 0 7.6 3zm98.5 9.5V153h-56v-25h56v12.5zm17-10.9c0 3.2 4.1 8.2 8.3 10.2 2.6 1.3 3.5 2.1 2.3 2.2-2.8 0-8.1 4.4-9.6 7.9-1.2 3.1-1.3 3.1-9.1 3.1H844v-25h8c6.7 0 8 .3 8 1.6zm98 10.9V153h-5.9c-5.8 0-5.9-.1-7.8-3.8-1.1-2.1-3.7-4.7-5.9-5.9-2.5-1.5-3.2-2.3-2-2.3 2.6 0 8.5-6.3 9.2-9.9.6-3 .8-3.1 6.5-3.1h5.9v12.5zm-769.4 6.9c2.8 2.8 3.4 4.2 3.4 7.6 0 14.1-20.4 15.8-22.6 1.8-1.2-7 4-12.8 11.4-12.8 3.7 0 5 .6 7.8 3.4zm691.5-1.1c2.1 1.4 3.9 3.8 4.8 6.3 1.2 3.5 1.2 4.4-.3 7.5-3.4 7.2-12 9.1-17.9 3.9-4.1-3.6-5.2-7.8-3.2-12.5 1.6-3.9 6.7-7.5 10.6-7.5 1.4 0 4.1 1 6 2.3zm-402.5 2.1c2.6 2.6 3.4 4.2 3.4 7 0 6.9-5 12.6-11 12.6-3.6 0-8.5-2.8-10.3-5.9-4.7-7.9 1-17 10.7-17.1 3 0 4.5.7 7.2 3.4zm-116.3-.3c3.9 3 5.3 8.5 3.4 13.1s-5.7 7.1-10.8 7.1c-5 0-9-2.8-10.6-7.4-1.5-4.7-.6-8.4 2.9-11.9 2.4-2.5 3.8-3 7.7-3 3.4 0 5.6.6 7.4 2.1zm173.9.8c2.9 2.6 3.3 3.6 3.3 7.9 0 5.7-2 8.6-7.2 10.8-7.4 3.2-15.3-2.5-15.3-10.9 0-3.1.7-4.6 3.4-7.3 2.9-2.9 4.1-3.4 8-3.4 3.6 0 5.2.6 7.8 2.9zm113.6-1.5c3.5 1.8 5.6 5.7 5.5 10.3-.1 4.7-3.1 8.5-8 10.2-3.6 1.3-4.3 1.2-7.9-.5-5.5-2.7-8.1-8.1-6.5-13.5 2-6.8 10.3-9.9 16.9-6.5zm116 .2c5.9 4.1 6.8 11.7 1.9 17.1-3 3.2-3.9 3.6-8.2 3.6-4.3 0-5.2-.4-8.3-3.7-3.1-3.5-3.4-4.2-2.9-8.4.7-6.3 4.9-10.2 11-10.2 2.3 0 5.3.7 6.5 1.6zM243 152.5c1.6 1.9.5 3.4-1.2 1.7-1.9-1.9-4.8-1.4-5.9 1.2-2.1 4.5 2.6 8.7 5.9 5.4 1.7-1.7 2.8-.2 1.2 1.7-1.6 2-5.9 1.9-8.2-.2-2.2-2-2.3-7-.1-9.5 2-2.2 6.6-2.4 8.3-.3zm693 0c1.6 1.9.5 3.4-1.2 1.7-1.9-1.9-4.8-1.4-5.9 1.2-2.1 4.5 2.6 8.7 5.9 5.4 1.7-1.7 2.8-.2 1.2 1.7-1.6 2-5.9 1.9-8.2-.2-2.2-2-2.3-7-.1-9.5 2-2.2 6.6-2.4 8.3-.3zm-422.7 7.4c.7 3.6 5.3 9 8.5 10.2l2.5 1-3.4 1.7c-1.9.9-4.3 3.1-5.4 4.9-1.8 3-2.4 3.2-7.4 3.3-3.4 0-6.1.6-7.1 1.5-1.5 1.4-1.8 1.4-3 0-.9-1.1-3.2-1.5-7.9-1.5-6.3-.1-6.7-.2-8.6-3.3-1.1-1.8-3.9-4.2-6.2-5.3l-4.2-2.2 3-.6c3.8-.7 8.5-5.6 9.4-9.6.6-2.9.7-2.9 8.3-3.2 4.2-.2 10.7-.2 14.3 0 6.4.3 6.7.5 7.2 3.1zM154 169v12h-8.3c-8.1 0-8.4-.1-10.6-3.1-6.7-9-17.5-9-24.2 0-2 2.8-2.8 3.1-7.6 3.1H98v-24h56v12zm13.7-8.3c5.3 11 21.1 11.1 25.9.2l1.8-3.9H211v24h-56v-24h5.4c5.3 0 5.5.1 7.3 3.7zm57.7-.4c1.7 4.2 7 8.7 10.4 8.8 8.2.4 12.1-1.6 15.4-7.8l2.3-4.3H269v24h-8.4c-7.6 0-8.5-.2-9.1-2-1-3-7-7.1-11.3-7.7-5.1-.7-10.7 2-13.5 6.3-2.1 3.2-2.5 3.4-7.9 3.4H213v-24h5.5c5.2 0 5.5.1 6.9 3.3zM326 169v12h-56v-24h56v12zm14-10c0 3.5 2.8 7.7 6.6 10.1 3.3 2 3.4 2.3 1.8 3.2-3 1.6-7.4 6-7.4 7.4 0 .9-1.8 1.3-6.5 1.3H328v-24h6c5.4 0 6 .2 6 2zm44 10v12h-7.9c-7.7 0-8-.1-9.7-2.9-.9-1.6-3.2-3.8-5.1-4.8l-3.5-2 3.6-2.1c3.2-1.9 5.3-5.1 7-10.5.4-1.4 1.8-1.7 8.1-1.7h7.5v12zm57 0v12h-56v-24h56v12zm15-8.5c1.3 4.1 7.2 9.5 10.2 9.5 1.6 0 1 .6-2.2 2.2-2.5 1.3-5.4 3.7-6.5 5.5-1.9 3.1-2.2 3.2-8.7 3.3H442v-11.3c0-6.3.3-11.7.7-12 .3-.4 3.2-.7 6.4-.7 5.7 0 5.8 0 6.9 3.5zm100 8.5v12h-7.2c-7.3 0-7.3 0-9.6-3.6-1.3-1.9-3.7-4.1-5.4-4.9l-3.2-1.3 3.1-1.6c3.9-2 7-5.8 7.8-9.6.7-3 .7-3 7.6-3h6.9v12zm57 0v12h-56v-24h56v12zm16.5-7.6c1.7 4.9 4.1 7.4 9.1 9.1 2.3.8 3.1 1.4 1.9 1.5-3 0-8.4 3.7-9.7 6.5-1 2.3-1.6 2.5-8.5 2.5H615v-24.1l6.6.3 6.6.3 1.3 3.9zM671 169v12h-7.4c-6.4 0-7.5-.3-8.1-1.9-.8-2.7-3.8-5.1-8.2-6.7-2.2-.8-3-1.3-1.8-1.4 5.1-.1 11.5-6.8 11.5-12 0-1.8.6-2 7-2h7v12zm57 0v12h-56v-24h56v12zm16.3-9.1c.7 3.4 5.9 9.7 8.8 10.6 1.8.6 1.7.9-1.3 2.3-1.8 1-4.2 3.1-5.3 4.9-1.9 3.1-2.2 3.2-9.2 3.3H730v-24h6.9c6.8 0 6.9 0 7.4 2.9zm41.5 9.3l.3 11.8h-6.8c-6.6-.1-6.9-.2-8.8-3.3-1.1-1.8-3.5-3.9-5.3-4.9-3-1.4-3.1-1.7-1.3-2.3 2.9-.9 8.1-7.2 8.8-10.6.6-3 .6-3 6.7-2.7l6.1.3.3 11.7zm57.2-.2v12h-6.4c-5.7 0-6.5-.3-8-2.5-5.5-8.3-19.5-8.5-24.3-.4-1.7 2.8-2 2.9-9.5 2.9H787v-24h56v12zm17-10c0 3 5.8 8.8 10.1 10.1 3 .9 4.8.9 7.8 0 4.3-1.3 10.1-7.1 10.1-10.1 0-1.8.7-2 6-2h6v24h-56v-24h8c7.3 0 8 .2 8 2zm58.6 2c2.1 5.1 6.4 8.2 12.3 8.7 5.9.6 10.8-2.4 13.6-8.4l2-4.2 5.8-.1h5.7v24h-6.3c-5.8 0-6.4-.2-8-2.9-3.2-5.5-12.5-7.8-18.7-4.6-1.6.8-3.8 2.8-5 4.5-2.1 2.9-2.4 3-10.1 3H902v-24h15l1.6 4zm-789.7 14.5c1.6.8 3.6 3.1 4.6 5.2 1.6 3.3 1.6 4.1.4 7.7-1.6 4.6-6.7 8.6-10.9 8.6s-9.3-4-10.9-8.6c-1.2-3.6-1.2-4.4.4-7.7 2.9-6.2 10.1-8.5 16.4-5.2zm115.9.5c9.5 5.8 4.9 21-6.3 21-3.8 0-8.3-2.6-10-6-5.5-10.7 6-21.3 16.3-15zm115.1-.5c1.6.8 3.6 3.1 4.6 5.1 1.4 3.1 1.5 4.3.6 7.5-2 6.6-8.2 10-14.5 7.9-5-1.6-7.6-5.3-7.6-10.7 0-3.8.5-5 3.4-7.9 3.8-3.8 8.6-4.5 13.5-1.9zm117.7 1.9c2.6 2.6 3.4 4.2 3.4 7 0 11.6-12.8 16.3-20.5 7.6-1.4-1.6-2-3.6-2-7.2 0-4.3.4-5.3 3.3-7.9 2.6-2.3 4.2-2.9 7.8-2.9 3.9 0 5.1.5 8 3.4zm172.4-.5c5.5 3.9 5.7 13.8.3 18.1-3.5 2.7-11.1 2.7-14.6 0-3.6-2.8-5.2-8.1-3.7-12.4 2.5-7.8 11.1-10.5 18-5.7zm115.9-.3c5.2 4.3 5.4 11.8.5 16.7-7.4 7.4-19.4 2-19.4-8.9 0-2.8.8-4.4 3.4-7 4.5-4.5 10.8-4.8 15.5-.8zm56.4-.4c2.4 1.2 5.7 6.8 5.7 9.6 0 3.1-2.5 7.7-5.2 9.6-3 2.1-10.7 2-13.4-.2-6.1-4.9-5.7-15.8.8-18.9 4.7-2.3 7.7-2.4 12.1-.1zm113.2-1.2c.7 0 2.7 1.4 4.4 3.1 2.6 2.6 3.1 3.8 3.1 7.9 0 4.1-.5 5.3-3.1 7.9-2.5 2.6-3.8 3.1-7.8 3.1-5.3 0-8.4-1.8-10.6-6-2.1-4-1.9-7.2.8-11.1 2.2-3.4 7.9-6.2 10.5-5.3.8.2 2 .4 2.7.4zM532 182.5c1.6 1.9.5 3.4-1.2 1.7-1.9-1.9-4.8-1.4-5.9 1.2-2.1 4.5 2.6 8.7 5.9 5.4 1.7-1.7 2.8-.2 1.2 1.7-1.6 2-5.9 1.9-8.2-.2-2.2-2-2.3-7-.1-9.5 2-2.2 6.6-2.4 8.3-.3z"/>
<path d="M119 41.5c0 5.1.3 6.5 1.5 6.5.9 0 1.5-.9 1.5-2.5 0-2.1.5-2.5 3-2.5 1.7 0 3-.5 3-1 0-.6-1.3-1-3-1-2.3 0-3-.4-3-2s.7-2 3-2c1.7 0 3-.5 3-1 0-.6-2-1-4.5-1H119v6.5zm634 0V48h5c2.8 0 5-.5 5-1 0-.6-1.6-1-3.5-1-2.4 0-3.5-.5-3.5-1.5s1.1-1.5 3.5-1.5c1.9 0 3.5-.5 3.5-1 0-.6-1.6-1-3.5-1-2.8 0-3.5-.4-3.5-2s.7-2 3.5-2c1.9 0 3.5-.5 3.5-1 0-.6-2.2-1-5-1h-5v6.5zm-116 0V48h3.8c4.7 0 7.2-2.4 7.2-6.7 0-3.9-2.8-6.3-7.3-6.3H637v6.5zm8.1-2.4c1.5 2.9-.3 6.9-3.1 6.9-1.7 0-2-.7-2-4.5s.3-4.5 2-4.5c1 0 2.4 1 3.1 2.1zM812 41.5c0 5.1.3 6.5 1.5 6.5.9 0 1.5-.9 1.5-2.5 0-2.1.5-2.5 3-2.5 1.7 0 3-.5 3-1 0-.6-1.3-1-3-1-2.3 0-3-.4-3-2s.7-2 3-2c1.7 0 3-.5 3-1 0-.6-2-1-4.5-1H812v6.5zM640.7 64.7c-.2.4-1.2 3.2-2.2 6.1-1.8 5.5-1.3 8 .9 4.9 1.6-2.1 5.2-2.2 6-.2.3.8 1.2 1.5 1.9 1.5 1.2 0 1-1.3-.8-6.3-2-5.6-4.5-8.2-5.8-6zm3.2 6.5c.1.5-.6.8-1.5.8-1.1 0-1.4-.5-1-1.6.3-.9.6-2.1.7-2.7 0-1.2 1.7 2 1.8 3.5zm109.1-.6v6.5l4.6-.3c5.5-.4 7.7-2.6 5.7-5.8-.8-1.2-.9-2.1-.3-2.5.7-.4.6-1.3 0-2.6-.8-1.4-2.1-1.9-5.5-1.9H753v6.6zm7.5-3.1c0 .5-1 1.1-2.2 1.3-1.6.2-2.3-.2-2.3-1.3s.7-1.5 2.3-1.3c1.2.2 2.2.7 2.2 1.3zm1 5.5c0 .9-1.1 1.6-2.7 1.8-2.3.3-2.8-.1-2.8-1.8s.5-2.1 2.8-1.8c1.6.2 2.7.9 2.7 1.8zM233 71.5V78h3.8c4.7 0 7.2-2.4 7.2-6.7 0-3.9-2.8-6.3-7.3-6.3H233v6.5zm8.1-2.4c1.5 2.9-.3 6.9-3.1 6.9-1.7 0-2-.7-2-4.5s.3-4.5 2-4.5c1 0 2.4 1 3.1 2.1zM348 70.5V77h5c2.8 0 5-.5 5-1 0-.6-1.6-1-3.5-1-2.4 0-3.5-.5-3.5-1.5s1.1-1.5 3.5-1.5c1.9 0 3.5-.5 3.5-1 0-.6-1.6-1-3.5-1-2.8 0-3.5-.4-3.5-2s.7-2 3.5-2c1.9 0 3.5-.5 3.5-1 0-.6-2.2-1-5-1h-5v6.5zm59 1c0 5.1.3 6.5 1.5 6.5.9 0 1.5-.9 1.5-2.5 0-2.1.5-2.5 3-2.5 1.7 0 3-.5 3-1 0-.6-1.3-1-3-1-2.3 0-3-.4-3-2s.7-2 3-2c1.7 0 3-.5 3-1 0-.6-2-1-4.5-1H407v6.5zm116.7-4.7c-2.2 2.5-2.1 7.5.1 9.5 3.6 3.3 10.2 1.4 10.2-2.8 0-2-.5-2.5-2.5-2.5-1.4 0-2.5.4-2.5 1 0 .5.7 1 1.5 1 2 0 1.9 1.6-.1 2.4-3 1.1-4.4.6-5.4-2-.7-1.7-.7-3.2 0-4.5 1.1-2 4.5-2.6 5.5-.9.9 1.5 2.5 1.2 2.5-.4 0-3-6.8-3.6-9.3-.8zM926 71.5V78h3.8c4.7 0 7.2-2.4 7.2-6.7 0-3.9-2.8-6.3-7.3-6.3H926v6.5zm8.1-2.4c1.5 2.9-.3 6.9-3.1 6.9-1.7 0-2-.7-2-4.5s.3-4.5 2-4.5c1 0 2.4 1 3.1 2.1zM290 98.6v6.5l4.6-.3c5.5-.4 7.7-2.6 5.7-5.8-.8-1.2-.9-2.1-.3-2.5.7-.4.6-1.3 0-2.6-.8-1.4-2.1-1.9-5.5-1.9H290v6.6zm7.5-3.1c0 .5-1 1.1-2.2 1.3-1.6.2-2.3-.2-2.3-1.3s.7-1.5 2.3-1.3c1.2.2 2.2.7 2.2 1.3zm1 5.5c0 .9-1.1 1.6-2.7 1.8-2.3.3-2.8-.1-2.8-1.8s.5-2.1 2.8-1.8c1.6.2 2.7.9 2.7 1.8zm-119.8-8.3c-.2.4-1.2 3.2-2.2 6.1-1.8 5.5-1.3 8 .9 4.9 1.6-2.1 5.2-2.2 6-.2.3.8 1.2 1.5 1.9 1.5 1.2 0 1-1.3-.8-6.3-2-5.6-4.5-8.2-5.8-6zm3.2 6.5c.1.5-.6.8-1.5.8-1.1 0-1.4-.5-1-1.6.3-.9.6-2.1.7-2.7 0-1.2 1.7 2 1.8 3.5zm397.1.3v6.5h5c2.8 0 5-.5 5-1 0-.6-1.6-1-3.5-1-2.4 0-3.5-.5-3.5-1.5s1.1-1.5 3.5-1.5c1.9 0 3.5-.5 3.5-1 0-.6-1.6-1-3.5-1-2.8 0-3.5-.4-3.5-2s.7-2 3.5-2c1.9 0 3.5-.5 3.5-1 0-.6-2.2-1-5-1h-5v6.5zm292.7-5.8c-.2.4-1.2 3.2-2.2 6.1-1.8 5.5-1.3 8 .9 4.9 1.6-2.1 5.2-2.2 6-.2.3.8 1.2 1.5 1.9 1.5 1.2 0 1-1.3-.8-6.3-2-5.6-4.5-8.2-5.8-6zm3.2 6.5c.1.5-.6.8-1.5.8-1.1 0-1.4-.5-1-1.6.3-.9.6-2.1.7-2.7 0-1.2 1.7 2 1.8 3.5zM464 99.5v6.5h3.8c4.7 0 7.2-2.4 7.2-6.7 0-3.9-2.8-6.3-7.3-6.3H464v6.5zm8.1-2.4c1.5 2.9-.3 6.9-3.1 6.9-1.7 0-2-.7-2-4.5s.3-4.5 2-4.5c1 0 2.4 1 3.1 2.1zM639 99.5c0 5.1.3 6.5 1.5 6.5.9 0 1.5-.9 1.5-2.5 0-2.1.5-2.5 3-2.5 1.7 0 3-.5 3-1 0-.6-1.3-1-3-1-2.3 0-3-.4-3-2s.7-2 3-2c1.7 0 3-.5 3-1 0-.6-2-1-4.5-1H639v6.5zm115.7-4.7c-2.2 2.5-2.1 7.5.1 9.5 3.6 3.3 10.2 1.4 10.2-2.8 0-2-.5-2.5-2.5-2.5-1.4 0-2.5.4-2.5 1 0 .5.7 1 1.5 1 2 0 1.9 1.6-.1 2.4-3 1.1-4.4.6-5.4-2-.7-1.7-.7-3.2 0-4.5 1.1-2 4.5-2.6 5.5-.9.9 1.5 2.5 1.2 2.5-.4 0-3-6.8-3.6-9.3-.8zM175 126.5v6.5h5c2.8 0 5-.5 5-1 0-.6-1.6-1-3.5-1-2.4 0-3.5-.5-3.5-1.5s1.1-1.5 3.5-1.5c1.9 0 3.5-.5 3.5-1 0-.6-1.6-1-3.5-1-2.8 0-3.5-.4-3.5-2s.7-2 3.5-2c1.9 0 3.5-.5 3.5-1 0-.6-2.2-1-5-1h-5v6.5zm693 1v6.5h5c2.8 0 5-.5 5-1 0-.6-1.6-1-3.5-1-2.4 0-3.5-.5-3.5-1.5s1.1-1.5 3.5-1.5c1.9 0 3.5-.5 3.5-1 0-.6-1.6-1-3.5-1-2.8 0-3.5-.4-3.5-2s.7-2 3.5-2c1.9 0 3.5-.5 3.5-1 0-.6-2.2-1-5-1h-5v6.5zm-634 0c0 5.1.3 6.5 1.5 6.5.9 0 1.5-.9 1.5-2.5 0-2.1.5-2.5 3-2.5 1.7 0 3-.5 3-1 0-.6-1.3-1-3-1-2.3 0-3-.4-3-2s.7-2 3-2c1.7 0 3-.5 3-1 0-.6-2-1-4.5-1H234v6.5zm233.7-4.8c-.2.4-1.2 3.2-2.2 6.1-1.8 5.5-1.3 8 .9 4.9 1.6-2.1 5.2-2.2 6-.2.3.8 1.2 1.5 1.9 1.5 1.2 0 1-1.3-.8-6.3-2-5.6-4.5-8.2-5.8-6zm3.2 6.5c.1.5-.6.8-1.5.8-1.1 0-1.4-.5-1-1.6.3-.9.6-2.1.7-2.7 0-1.2 1.7 2 1.8 3.5zm108.1-1.6v6.5l4.6-.3c5.5-.4 7.7-2.6 5.7-5.8-.8-1.2-.9-2.1-.3-2.5.7-.4.6-1.3 0-2.6-.8-1.4-2.1-1.9-5.5-1.9H579v6.6zm7.5-3.1c0 .5-1 1.1-2.2 1.3-1.6.2-2.3-.2-2.3-1.3s.7-1.5 2.3-1.3c1.2.2 2.2.7 2.2 1.3zm1 5.5c0 .9-1.1 1.6-2.7 1.8-2.3.3-2.8-.1-2.8-1.8s.5-2.1 2.8-1.8c1.6.2 2.7.9 2.7 1.8zm339.5-1.5c0 5.1.3 6.5 1.5 6.5.9 0 1.5-.9 1.5-2.5 0-2.1.5-2.5 3-2.5 1.7 0 3-.5 3-1 0-.6-1.3-1-3-1-2.3 0-3-.4-3-2s.7-2 3-2c1.7 0 3-.5 3-1 0-.6-2-1-4.5-1H927v6.5zm-577.3-4.7c-2.2 2.5-2.1 7.5.1 9.5 3.6 3.3 10.2 1.4 10.2-2.8 0-2-.5-2.5-2.5-2.5-1.4 0-2.5.4-2.5 1 0 .5.7 1 1.5 1 2 0 1.9 1.6-.1 2.4-3 1.1-4.4.6-5.4-2-.7-1.7-.7-3.2 0-4.5 1.1-2 4.5-2.6 5.5-.9.9 1.5 2.5 1.2 2.5-.4 0-3-6.8-3.6-9.3-.8zm403.3 4.7v6.5h3.8c4.7 0 7.2-2.4 7.2-6.7 0-3.9-2.8-6.3-7.3-6.3H753v6.5zm8.1-2.4c1.5 2.9-.3 6.9-3.1 6.9-1.7 0-2-.7-2-4.5s.3-4.5 2-4.5c1 0 2.4 1 3.1 2.1zM175 155.6v6.5l4.6-.3c5.5-.4 7.7-2.6 5.7-5.8-.8-1.2-.9-2.1-.3-2.5.7-.4.6-1.3 0-2.6-.8-1.4-2.1-1.9-5.5-1.9H175v6.6zm7.5-3.1c0 .5-1 1.1-2.2 1.3-1.6.2-2.3-.2-2.3-1.3s.7-1.5 2.3-1.3c1.2.2 2.2.7 2.2 1.3zm1 5.5c0 .9-1.1 1.6-2.7 1.8-2.3.3-2.8-.1-2.8-1.8s.5-2.1 2.8-1.8c1.6.2 2.7.9 2.7 1.8zm684.5-1.4v6.5l4.6-.3c5.5-.4 7.7-2.6 5.7-5.8-.8-1.2-.9-2.1-.3-2.5.7-.4.6-1.3 0-2.6-.8-1.4-2.1-1.9-5.5-1.9H868v6.6zm7.5-3.1c0 .5-1 1.1-2.2 1.3-1.6.2-2.3-.2-2.3-1.3s.7-1.5 2.3-1.3c1.2.2 2.2.7 2.2 1.3zm1 5.5c0 .9-1.1 1.6-2.7 1.8-2.3.3-2.8-.1-2.8-1.8s.5-2.1 2.8-1.8c1.6.2 2.7.9 2.7 1.8zM464 156.5v6.5h5c2.8 0 5-.5 5-1 0-.6-1.6-1-3.5-1-2.4 0-3.5-.5-3.5-1.5s1.1-1.5 3.5-1.5c1.9 0 3.5-.5 3.5-1 0-.6-1.6-1-3.5-1-2.8 0-3.5-.4-3.5-2s.7-2 3.5-2c1.9 0 3.5-.5 3.5-1 0-.6-2.2-1-5-1h-5v6.5zm-116 1v6.5h3.8c4.7 0 7.2-2.4 7.2-6.7 0-3.9-2.8-6.3-7.3-6.3H348v6.5zm8.1-2.4c1.5 2.9-.3 6.9-3.1 6.9-1.7 0-2-.7-2-4.5s.3-4.5 2-4.5c1 0 2.4 1 3.1 2.1zm166.9 2.4c0 5.1.3 6.5 1.5 6.5.9 0 1.5-.9 1.5-2.5 0-2.1.5-2.5 3-2.5 1.7 0 3-.5 3-1 0-.6-1.3-1-3-1-2.3 0-3-.4-3-2s.7-2 3-2c1.7 0 3-.5 3-1 0-.6-2-1-4.5-1H523v6.5zm115.7-4.7c-2.2 2.5-2.1 7.5.1 9.5 3.6 3.3 10.2 1.4 10.2-2.8 0-2-.5-2.5-2.5-2.5-1.4 0-2.5.4-2.5 1 0 .5.7 1 1.5 1 2 0 1.9 1.6-.1 2.4-3 1.1-4.4.6-5.4-2-.7-1.7-.7-3.2 0-4.5 1.1-2 4.5-2.6 5.5-.9.9 1.5 2.5 1.2 2.5-.4 0-3-6.8-3.6-9.3-.8zm118-1.1c-.2.4-1.2 3.2-2.2 6.1-1.8 5.5-1.3 8 .9 4.9 1.6-2.1 5.2-2.2 6-.2.3.8 1.2 1.5 1.9 1.5 1.2 0 1-1.3-.8-6.3-2-5.6-4.5-8.2-5.8-6zm3.2 6.5c.1.5-.6.8-1.5.8-1.1 0-1.4-.5-1-1.6.3-.9.6-2.1.7-2.7 0-1.2 1.7 2 1.8 3.5zM119 185.5c0 5.1.3 6.5 1.5 6.5.9 0 1.5-.9 1.5-2.5 0-2.1.5-2.5 3-2.5 1.7 0 3-.5 3-1 0-.6-1.3-1-3-1-2.3 0-3-.4-3-2s.7-2 3-2c1.7 0 3-.5 3-1 0-.6-2-1-4.5-1H119v6.5zm115.7-3.7c-2.2 2.5-2.1 7.5.1 9.5 3.6 3.3 10.2 1.4 10.2-2.8 0-2-.5-2.5-2.5-2.5-1.4 0-2.5.4-2.5 1 0 .5.7 1 1.5 1 2 0 1.9 1.6-.1 2.4-3 1.1-4.4.6-5.4-2-.7-1.7-.7-3.2 0-4.5 1.1-2 4.5-2.6 5.5-.9.9 1.5 2.5 1.2 2.5-.4 0-3-6.8-3.6-9.3-.8zm117-2.1c-.2.4-1.2 3.2-2.2 6.1-1.8 5.5-1.3 8 .9 4.9 1.6-2.1 5.2-2.2 6-.2.3.8 1.2 1.5 1.9 1.5 1.2 0 1-1.3-.8-6.3-2-5.6-4.5-8.2-5.8-6zm3.2 6.5c.1.5-.6.8-1.5.8-1.1 0-1.4-.5-1-1.6.3-.9.6-2.1.7-2.7 0-1.2 1.7 2 1.8 3.5zm109.1-.6v6.5l4.6-.3c5.5-.4 7.7-2.6 5.7-5.8-.8-1.2-.9-2.1-.3-2.5.7-.4.6-1.3 0-2.6-.8-1.4-2.1-1.9-5.5-1.9H464v6.6zm7.5-3.1c0 .5-1 1.1-2.2 1.3-1.6.2-2.3-.2-2.3-1.3s.7-1.5 2.3-1.3c1.2.2 2.2.7 2.2 1.3zm1 5.5c0 .9-1.1 1.6-2.7 1.8-2.3.3-2.8-.1-2.8-1.8s.5-2.1 2.8-1.8c1.6.2 2.7.9 2.7 1.8zm164.5-1.5v6.5h3.8c4.7 0 7.2-2.4 7.2-6.7 0-3.9-2.8-6.3-7.3-6.3H637v6.5zm8.1-2.4c1.5 2.9-.3 6.9-3.1 6.9-1.7 0-2-.7-2-4.5s.3-4.5 2-4.5c1 0 2.4 1 3.1 2.1zm107.9 1.4v6.5h5c2.8 0 5-.5 5-1 0-.6-1.6-1-3.5-1-2.4 0-3.5-.5-3.5-1.5s1.1-1.5 3.5-1.5c1.9 0 3.5-.5 3.5-1 0-.6-1.6-1-3.5-1-2.8 0-3.5-.4-3.5-2s.7-2 3.5-2c1.9 0 3.5-.5 3.5-1 0-.6-2.2-1-5-1h-5v6.5zm59 1c0 5.1.3 6.5 1.5 6.5.9 0 1.5-.9 1.5-2.5 0-2.1.5-2.5 3-2.5 1.7 0 3-.5 3-1 0-.6-1.3-1-3-1-2.3 0-3-.4-3-2s.7-2 3-2c1.7 0 3-.5 3-1 0-.6-2-1-4.5-1H812v6.5zm115.7-4.7c-2.2 2.5-2.1 7.5.1 9.5 3.6 3.3 10.2 1.4 10.2-2.8 0-2-.5-2.5-2.5-2.5-1.4 0-2.5.4-2.5 1 0 .5.7 1 1.5 1 2 0 1.9 1.6-.1 2.4-3 1.1-4.4.6-5.4-2-.7-1.7-.7-3.2 0-4.5 1.1-2 4.5-2.6 5.5-.9.9 1.5 2.5 1.2 2.5-.4 0-3-6.8-3.6-9.3-.8zM57.2 29c-9.1 5.6-7.8 19 2.3 24.7 2.6 1.5 3.3 2.3 2.2 2.3-2.7 0-7.5 3.7-9.2 7-3.5 6.7-.5 15.9 6.2 19 1.8.8 3.3 1.7 3.3 2 0 .3-1.5 1.2-3.3 2-6.6 3.1-9.7 12.3-6.3 18.9 1.9 3.6 3.7 5 8.3 6.6l3.7 1.3-3.1.6c-1.6.4-4.5 2.2-6.3 4.1-6.4 6.6-4.7 17.6 3.4 21.8l3.7 1.9-3.3 1.7c-7.2 3.6-10 13.1-5.8 19.8 2.1 3.4 4.8 5.3 9.5 6.3l3 .7-3 .8c-12.2 3.2-15.6 17.8-5.9 25.4 7.7 6 19.8 1.8 22.4-7.8 1.9-7.1-1.8-13.7-9.5-17.2-3.7-1.6-3.8-1.8-1.3-1.8 3.8-.1 9.6-5.5 10.8-10 1.7-6.4-1.4-13.6-7.1-16.3l-3.2-1.6 3.1-1.6c10.7-5.5 10-20.6-1.2-25.7-3-1.4-3.5-1.9-1.9-1.9 3.3 0 9.1-5.6 10.3-9.9 1.8-6.6-1.1-13.1-7.2-16.2l-4.2-2.1 3.1-1.3c11.6-4.9 11.6-21 0-26l-2.9-1.2 3.9-2c2.1-1.1 4.7-3.5 5.7-5.3 2.4-4.1 2.5-11 .2-14.5-4.2-6.3-13.9-8.5-20.4-4.5zm11.5 1.1C81.3 34.8 78.4 52 65 52c-3.4 0-4.8-.6-7.6-3.4S54 44.5 54 40.8c0-5.1 2.1-8.5 6.4-10.4 3.8-1.6 4.7-1.7 8.3-.3zm1.8 29.5c3.2 1.5 6.5 6.4 6.5 9.7 0 3.6-2.4 7.8-5.7 9.8-7.5 4.7-17.3-.5-17.3-9.2 0-5.1 1.3-7.5 5.3-9.9 3.9-2.4 6.8-2.5 11.2-.4zm.5 28.9c6.5 3.4 7.6 12.1 2.4 17.6-7.3 7.6-19.4 2.7-19.4-7.8 0-3.8.5-5 3.4-7.9 3.9-3.9 8.6-4.5 13.6-1.9zm2 30.4c1.6 1.6 3.2 4 3.6 5.5 1.9 7.8-5.8 15.4-14 13.9-1.5-.3-4-1.9-5.6-3.5-2.4-2.3-3-3.8-3-7.1.1-7.7 4-11.6 11.8-11.7 3.5 0 4.9.6 7.2 2.9zm-1.9 26.7c6.5 3.3 7.5 13.1 1.8 17.8-4 3.4-7 4.1-11.3 2.6-5-1.6-7.6-5.3-7.6-10.7 0-3.8.5-5 3.4-7.9 3.9-3.9 8.6-4.5 13.7-1.8zm-.6 29c3.2 1.5 6.5 6.4 6.5 9.7 0 3.6-2.4 7.8-5.7 9.8-7.5 4.7-17.3-.5-17.3-9.2 0-5.1 1.3-7.5 5.3-9.9 3.9-2.4 6.8-2.5 11.2-.4z"/><path d="M59 41.5V48h5c2.8 0 5-.5 5-1 0-.6-1.6-1-3.5-1-2.4 0-3.5-.5-3.5-1.5s1.1-1.5 3.5-1.5c1.9 0 3.5-.5 3.5-1 0-.6-1.6-1-3.5-1-2.8 0-3.5-.4-3.5-2s.7-2 3.5-2c1.9 0 3.5-.5 3.5-1 0-.6-2.2-1-5-1h-5v6.5zm0 29.1v6.5l4.6-.3c5.5-.4 7.7-2.6 5.7-5.8-.8-1.2-.9-2.1-.3-2.5.7-.4.6-1.3 0-2.6-.8-1.4-2.1-1.9-5.5-1.9H59v6.6zm7.5-3.1c0 .5-1 1.1-2.2 1.3-1.6.2-2.3-.2-2.3-1.3s.7-1.5 2.3-1.3c1.2.2 2.2.7 2.2 1.3zm1 5.5c0 .9-1.1 1.6-2.7 1.8-2.3.3-2.8-.1-2.8-1.8s.5-2.1 2.8-1.8c1.6.2 2.7.9 2.7 1.8zm-6.8 20.8c-2.2 2.5-2.1 7.5.1 9.5 3.6 3.3 10.2 1.4 10.2-2.8 0-2-.5-2.5-2.5-2.5-1.4 0-2.5.4-2.5 1 0 .5.7 1 1.5 1 2 0 1.9 1.6-.1 2.4-3 1.1-4.4.6-5.4-2-.7-1.7-.7-3.2 0-4.5 1.1-2 4.5-2.6 5.5-.9.9 1.5 2.5 1.2 2.5-.4 0-3-6.8-3.6-9.3-.8zM59 127.5v6.5h3.8c4.7 0 7.2-2.4 7.2-6.7 0-3.9-2.8-6.3-7.3-6.3H59v6.5zm8.1-2.4c1.5 2.9-.3 6.9-3.1 6.9-1.7 0-2-.7-2-4.5s.3-4.5 2-4.5c1 0 2.4 1 3.1 2.1zm-4.4 24.6c-.2.4-1.2 3.2-2.2 6.1-1.8 5.5-1.3 8 .9 4.9 1.6-2.1 5.2-2.2 6-.2.3.8 1.2 1.5 1.9 1.5 1.2 0 1-1.3-.8-6.3-2-5.6-4.5-8.2-5.8-6zm3.2 6.5c.1.5-.6.8-1.5.8-1.1 0-1.4-.5-1-1.6.3-.9.6-2.1.7-2.7 0-1.2 1.7 2 1.8 3.5zM59 185.5v6.5h5c2.8 0 5-.5 5-1 0-.6-1.6-1-3.5-1-2.4 0-3.5-.5-3.5-1.5s1.1-1.5 3.5-1.5c1.9 0 3.5-.5 3.5-1 0-.6-1.6-1-3.5-1-2.8 0-3.5-.4-3.5-2s.7-2 3.5-2c1.9 0 3.5-.5 3.5-1 0-.6-2.2-1-5-1h-5v6.5zM229.5 30.1c-11.9 10.4-1.7 28.6 13.5 24 6.8-2 11.3-9.9 9.5-16.8-.3-1.5-2.3-4.4-4.4-6.5-3.6-3.5-4.3-3.8-9.4-3.8-4.9 0-6.1.4-9.2 3.1zm14.1.5c4.1 2 6.4 5.9 6.4 11 0 2.8-.8 4.4-3.4 7-2.9 2.9-4.1 3.4-8 3.4-12.1 0-16-16.1-5.2-21.4 4-2 6-2 10.2 0z"/><path d="M234.7 36.8c-2.2 2.5-2.1 7.5.1 9.5 3.6 3.3 10.2 1.4 10.2-2.8 0-2-.5-2.5-2.5-2.5-1.4 0-2.5.4-2.5 1 0 .5.7 1 1.5 1 2 0 1.9 1.6-.1 2.4-3 1.1-4.4.6-5.4-2-.7-1.7-.7-3.2 0-4.5 1.1-2 4.5-2.6 5.5-.9.9 1.5 2.5 1.2 2.5-.4 0-3-6.8-3.6-9.3-.8zM346.3 29c-9.6 5.8-8.3 19.4 2.4 24.9 5.1 2.6 13.7.2 16.9-4.7 6.6-10 .2-22.2-11.6-22.2-2.7 0-5.8.8-7.7 2zm14.7 2.9c1.4 1 3.1 3.6 3.9 5.7 1.2 3.6 1.2 4.4-.4 7.7-2.1 4.4-5.9 6.7-11.1 6.7-2.8 0-4.4-.8-7-3.4-2.8-2.8-3.4-4.1-3.4-7.8 0-5.1 2-8.5 6.4-10.4 3.7-1.7 8.1-1.1 11.6 1.5z"/><path d="M351.7 35.7c-.2.4-1.2 3.2-2.2 6.1-1.8 5.5-1.3 8 .9 4.9 1.6-2.1 5.2-2.2 6-.2.3.8 1.2 1.5 1.9 1.5 1.2 0 1-1.3-.8-6.3-2-5.6-4.5-8.2-5.8-6zm3.2 6.5c.1.5-.6.8-1.5.8-1.1 0-1.4-.5-1-1.6.3-.9.6-2.1.7-2.7 0-1.2 1.7 2 1.8 3.5zM520 28.7c-6 4.2-8.1 9.7-6.1 16.3 3.1 10.3 17.5 13.2 24.5 5 5.1-6.1 4.3-14.4-2-20-2.9-2.5-4.3-3-8.7-3-3.3 0-6.2.6-7.7 1.7zm12 8.8c1.6 1.9.5 3.4-1.2 1.7-1.9-1.9-4.8-1.4-5.9 1.2-2.1 4.5 2.6 8.7 5.9 5.4 1.7-1.7 2.8-.2 1.2 1.7-1.6 2-5.9 1.9-8.2-.2-2.2-2-2.3-7-.1-9.5 2-2.2 6.6-2.4 8.3-.3zm392.3-7.6c-12.1 7.6-6.8 26.1 7.4 26.1 12.7 0 19-14.8 10-23.8-3-3-4.4-3.6-8.9-3.9-4.1-.3-6 .1-8.5 1.6zm15.6 4.2c2.6 2.6 3.1 3.8 3.1 7.9 0 4-.5 5.3-3 7.8-1.6 1.6-4.1 3.2-5.6 3.5-8.2 1.5-15.9-6.1-14-13.9.4-1.5 2-3.9 3.6-5.5 2.4-2.4 3.7-2.9 7.8-2.9 4.3 0 5.5.5 8.1 3.1z"/><path d="M927.7 37.8c-2.2 2.5-2.1 7.5.1 9.5 3.6 3.3 10.2 1.4 10.2-2.8 0-2-.5-2.5-2.5-2.5-1.4 0-2.5.4-2.5 1 0 .5.7 1 1.5 1 2 0 1.9 1.6-.1 2.4-3 1.1-4.4.6-5.4-2-.7-1.7-.7-3.2 0-4.5 1.1-2 4.5-2.6 5.5-.9.9 1.5 2.5 1.2 2.5-.4 0-3-6.8-3.6-9.3-.8zm-835-2.1c-.4.3-.7 1.9-.7 3.5 0 2.8 1.3 3.7 2.5 1.8.5-.8 1.1-.7 2.1.1 1.2.9 1.4.5 1.4-2.5 0-3.1-.3-3.6-2.3-3.6-1.3 0-2.7.3-3 .7zM785 40c0 .5.5 1 1 1 .6 0 1-.5 1-1 0-.6-.4-1-1-1-.5 0-1 .4-1 1zM120 216.5c-1.1 1.3-1 1.4.4.9 1.3-.5 1.6.1 1.6 2.9 0 2.5-.5 3.7-1.7 4-1 .3-.2.5 1.7.5s2.9-.2 2.3-.5c-.8-.3-1.3-2.3-1.3-4.9 0-4.6-.9-5.4-3-2.9zm116-.4c-1.2.8-1 .9.8.4 1.6-.5 2.2-.2 2.2.9 0 .9-.5 1.6-1.2 1.6-.6 0-.3.6.8 1.4 1.5 1.2 1.6 1.7.7 2.7-1 1-1.5.9-2.8-.1-.8-.7-1.5-.8-1.5-.2 0 1.3 2.6 2.3 4.5 1.6 1.8-.7 1.9-2.6.3-4.2-.9-.9-.9-1.2 0-1.2 1.8 0 1.5-2.7-.4-3.4-1.9-.7-1.6-.8-3.4.5zm57.7 1.8c-2.2 3.8-2.2 5.1.3 5.1 1.1 0 2 .5 2 1 0 .6.6.5 1.4-.2.8-.7 1-1.5.5-1.6-.5-.2-.9-1.9-.9-3.8 0-4.2-1-4.3-3.3-.5zm2.3 1.6c0 1.6-.6 2.5-1.5 2.5-1.8 0-1.8-.5-.5-3.1 1.4-2.6 2-2.4 2 .6zm54-2c0 1.4.5 2.5 1 2.5.6 0 1-.8.8-1.7-.2-1.1.6-1.9 2.2-2.4 2.3-.6 2.3-.7-.7-.8-2.9-.1-3.3.2-3.3 2.4zm59.2-1.3c-1.6 1.6-1.5 6.3.2 7.7 2 1.7 4.8.2 4.4-2.3-.2-1.3-1.2-2.2-2.6-2.4-1.8-.3-2.1-.6-1.2-1.7.6-.8 1.9-1.1 2.8-.8 1.5.4 1.5.3.2-.6-1.9-1.4-2.3-1.4-3.8.1zm3.8 5.2c0 2.1-2.1 3.1-3 1.5-.5-.7-.6-1.7-.4-2.1.9-1.4 3.4-.9 3.4.6zm53.8-5.7c2.6.5 2.7.9.7 5.7-.8 2-1.2 3.6-.8 3.6.5 0 1.3-1.5 1.9-3.3.6-1.7 1.4-4 1.9-5 .6-1.4.2-1.7-2.6-1.6-2.4.1-2.7.3-1.1.6zm57.6.1c-1.7 1.1-1.6 7.9.1 8.6 2.9 1.1 4.4-.5 4.3-4.2-.1-3.2-1.2-5.2-2.8-5.2-.3 0-1 .4-1.6.8zm3.1 1.1c.7 1.2-1.2 2.4-2.5 1.6-1.1-.7-.4-2.5 1-2.5.5 0 1.1.4 1.5.9zm.1 4.2c1 1.7-1.3 3.6-2.7 2.2-1.2-1.2-.4-3.3 1.1-3.3.5 0 1.2.5 1.6 1.1zm54.6-5.2c-2 1.3-1 4.6 1.5 4.9 1.5.2 2 .8 1.6 1.8-.3.9-1.3 1.3-2.7.9-1.9-.5-1.9-.5-.3.5 3.6 2.3 6.7-4.6 3.5-7.8-1.4-1.4-1.9-1.5-3.6-.3zm3.4 1.2c1 1.7-1.3 3.6-2.7 2.2-1.2-1.2-.4-3.3 1.1-3.3.5 0 1.2.5 1.6 1.1zm48.4-.6c-1.1 1.3-1 1.4.4.9 1.3-.5 1.6.1 1.6 2.9 0 2.5-.5 3.7-1.7 4-1 .3-.2.5 1.7.5s2.9-.2 2.3-.5c-.8-.3-1.3-2.3-1.3-4.9 0-4.6-.9-5.4-3-2.9zm9.2-.3c-3.1 3.1 0 10.5 3.3 7.8 2.5-2.1 1.4-9-1.5-9-.3 0-1.1.5-1.8 1.2zm3.6 2.9c.3 2.9-1.2 5.4-2.7 4.5-1.2-.8-1.5-5.9-.4-7 1.2-1.2 2.8 0 3.1 2.5zm45.2-2.6c-1.1 1.3-1 1.4.4.9 1.3-.5 1.6.1 1.6 2.9 0 2.5-.5 3.7-1.7 4-1 .3-.2.5 1.7.5s2.9-.2 2.3-.5c-.8-.3-1.3-2.3-1.3-4.9 0-4.6-.9-5.4-3-2.9zm9 0c-1.1 1.3-1 1.4.4.9 1.3-.5 1.6.1 1.6 2.9 0 2.5-.5 3.7-1.7 4-1 .3-.2.5 1.7.5s2.9-.2 2.3-.5c-.8-.3-1.3-2.3-1.3-4.9 0-4.6-.9-5.4-3-2.9zm106 0c-1.1 1.3-1 1.4.4.9 1.3-.5 1.6.1 1.6 2.9 0 2.5-.5 3.7-1.7 4-1 .3-.2.5 1.7.5s2.9-.2 2.3-.5c-.8-.3-1.3-2.3-1.3-4.9 0-4.6-.9-5.4-3-2.9zm9-.4c-1.2.8-1 .9.8.4 1.6-.5 2.2-.2 2.2.9 0 .9-.5 1.6-1.2 1.6-.6 0-.3.6.8 1.4 1.5 1.2 1.6 1.7.7 2.7-1 1-1.5.9-2.8-.1-.8-.7-1.5-.8-1.5-.2 0 1.3 2.6 2.3 4.5 1.6 1.8-.7 1.9-2.6.3-4.2-.9-.9-.9-1.2 0-1.2 1.8 0 1.5-2.7-.4-3.4-1.9-.7-1.6-.8-3.4.5zm49 .4c-1.1 1.3-1 1.4.4.9 1.3-.5 1.6.1 1.6 2.9 0 2.5-.5 3.7-1.7 4-1 .3-.2.5 1.7.5s2.9-.2 2.3-.5c-.8-.3-1.3-2.3-1.3-4.9 0-4.6-.9-5.4-3-2.9zm9.7 1.4c-2.2 3.8-2.2 5.1.3 5.1 1.1 0 2 .5 2 1 0 .6.6.5 1.4-.2.8-.7 1-1.5.5-1.6-.5-.2-.9-1.9-.9-3.8 0-4.2-1-4.3-3.3-.5zm2.3 1.6c0 1.6-.6 2.5-1.5 2.5-1.8 0-1.8-.5-.5-3.1 1.4-2.6 2-2.4 2 .6zm46-3c-1.1 1.3-1 1.4.4.9 1.3-.5 1.6.1 1.6 2.9 0 2.5-.5 3.7-1.7 4-1 .3-.2.5 1.7.5s2.9-.2 2.3-.5c-.8-.3-1.3-2.3-1.3-4.9 0-4.6-.9-5.4-3-2.9zm7 1c0 1.4.5 2.5 1 2.5.6 0 1-.8.8-1.7-.2-1.1.6-1.9 2.2-2.4 2.3-.6 2.3-.7-.7-.8-2.9-.1-3.3.2-3.3 2.4zm-751.7-.8c-.7.2-1.3.9-1.3 1.5s.6.5 1.5-.2c1.1-.9 1.9-1 2.6-.3.7.7.2 1.9-1.5 3.8-3.4 3.7-3.3 4.5.7 4.4 2.3-.1 2.6-.3 1-.6-2.8-.5-2.9-1.5-.3-3.8 2.4-2.2 2.6-4.1.4-4.9-.9-.3-1.6-.6-1.7-.5-.1 0-.8.3-1.4.6zm571.7.8c-1.1 1.3-1 1.4.4.9 1.3-.5 1.6.1 1.6 2.9 0 2.5-.5 3.7-1.7 4-1 .3-.2.5 1.7.5s2.9-.2 2.3-.5c-.8-.3-1.3-2.3-1.3-4.9 0-4.6-.9-5.4-3-2.9zm9.3-.8c-.7.2-1.3.9-1.3 1.5s.6.5 1.5-.2c1.1-.9 1.9-1 2.6-.3.7.7.2 1.9-1.5 3.8-3.4 3.7-3.3 4.5.7 4.4 2.3-.1 2.6-.3 1-.6-2.8-.5-2.9-1.5-.3-3.8 2.4-2.2 2.6-4.1.4-4.9-.9-.3-1.6-.6-1.7-.5-.1 0-.8.3-1.4.6z"/><path d="M353.9 219.3c1.9 2.4.7 5-2.1 4.2-1.9-.5-2-.4-.6.5 2.5 1.6 5 .1 4.6-2.8-.2-1.4-1-2.8-1.8-3-1.3-.5-1.3-.3-.1 1.1zm580 0c1.9 2.4.7 5-2.1 4.2-1.9-.5-2-.4-.6.5 2.5 1.6 5 .1 4.6-2.8-.2-1.4-1-2.8-1.8-3-1.3-.5-1.3-.3-.1 1.1z"/></svg>