<?xml version="1.0" standalone="no"?>
<!DOCTYPE svg PUBLIC "-//W3C//DTD SVG 20010904//EN"
 "http://www.w3.org/TR/2001/REC-SVG-20010904/DTD/svg10.dtd">
<svg version="1.0" xmlns="http://www.w3.org/2000/svg"
 width="115.000000pt" height="115.000000pt" viewBox="0 0 115.000000 115.000000"
 preserveAspectRatio="xMidYMid meet">

<g transform="translate(0.000000,115.000000) scale(0.100000,-0.100000)"
fill="#000000" stroke="none">
<path d="M0 575 l0 -575 575 0 575 0 0 575 0 575 -575 0 -575 0 0 -575z m699
462 c18 5 49 -23 37 -34 -3 -3 -6 -1 -6 5 0 6 -7 9 -15 6 -17 -7 -45 12 -44
30 0 8 2 8 5 0 3 -7 13 -10 23 -7z m146 -17 c-3 -5 -13 -10 -22 -10 -9 0 -25
-8 -36 -17 -16 -14 -19 -15 -15 -3 5 16 44 40 66 40 7 0 10 -4 7 -10z m83 -57
c5 -34 -39 -73 -80 -72 -19 1 -25 3 -13 6 11 2 30 6 42 9 26 5 45 36 37 58 -8
21 -34 21 -34 0 0 -9 5 -12 13 -8 6 4 5 0 -3 -9 -8 -9 -30 -19 -48 -23 -30 -6
-32 -5 -32 20 0 19 -4 25 -12 21 -7 -4 -4 1 7 10 14 11 35 15 70 13 43 -3 50
-6 53 -25z m-132 -31 c-3 -3 -1 -11 5 -19 14 -16 -3 -17 -19 -1 -17 17 -15 39
3 31 9 -3 13 -8 11 -11z m-40 -55 c63 -32 106 -82 128 -149 13 -42 16 -99 16
-330 0 -219 -3 -279 -12 -276 -7 3 -17 28 -22 56 -8 44 -13 52 -39 61 -16 6
-50 11 -73 11 l-44 0 0 -70 c0 -58 -3 -68 -15 -64 -9 4 -15 19 -15 41 0 19 -7
47 -15 63 -15 29 -18 30 -85 30 -60 0 -70 3 -71 18 -1 16 -2 16 -6 0 -3 -13
-15 -18 -39 -18 l-34 0 0 -52 c0 -94 -22 -99 -44 -10 -19 72 -36 65 -36 -14 0
-68 0 -68 -20 -49 -16 16 -20 36 -22 97 -2 42 -6 71 -10 65 -7 -11 -33 40 -29
57 1 5 -7 15 -19 23 -24 17 -26 33 -4 33 12 0 14 5 8 18 -9 20 -9 61 0 69 3 4
12 -1 19 -11 9 -12 23 -17 42 -14 26 3 30 7 27 31 -3 25 -1 27 17 18 31 -17
40 -13 39 19 -1 38 27 70 62 70 33 0 43 -9 29 -26 -19 -23 -1 -53 36 -60 41
-7 55 0 55 30 0 21 17 46 31 46 4 0 5 -8 2 -19 -8 -32 18 -37 44 -7 18 22 23
39 23 85 0 102 -16 163 -51 195 -30 27 -36 28 -101 24 -57 -5 -66 -3 -57 8 19
24 70 33 154 30 63 -2 91 -8 131 -29z m-379 -13 l28 -25 -31 21 c-36 25 -81
24 -98 -2 -8 -13 -7 -21 2 -30 11 -11 15 -10 23 5 14 24 36 21 76 -9 37 -28
40 -40 16 -66 -24 -27 -78 -24 -108 7 -74 73 15 170 92 99z m-137 -138 c0 -2
-8 -10 -17 -17 -16 -13 -17 -12 -4 4 13 16 21 21 21 13z m60 -6 c0 -5 -2 -10
-4 -10 -3 0 -8 5 -11 10 -3 6 -1 10 4 10 6 0 11 -4 11 -10z m-20 -26 c0 -20
-29 -30 -43 -15 -9 10 -8 16 7 26 21 16 36 11 36 -11z"/>
<path d="M501 420 c0 -8 4 -24 9 -35 5 -13 9 -14 9 -5 0 8 -4 24 -9 35 -5 13
-9 14 -9 5z"/>
<path d="M563 350 c0 -36 2 -50 4 -32 2 17 2 47 0 65 -2 17 -4 3 -4 -33z"/>
<path d="M270 806 c0 -23 40 -56 68 -56 37 0 61 17 55 40 -6 23 -23 27 -23 5
0 -22 -43 -19 -74 6 -21 17 -26 18 -26 5z"/>
</g>
</svg>
